<svg xmlns="http://www.w3.org/2000/svg" viewBox="0 0 1010 1010" id="bitcoin"><path fill="#FC6E51" d="M505 1010c278.875 0 505-226.086 505-505.01C1010 226.125 783.875 0 505 0 226.106 0 0 226.125 0 504.99 0 783.914 226.106 1010 505 1010z"></path><path fill="#FFF" d="M787.8 505c0 156.175-126.624 282.8-282.8 282.8-156.195 0-282.8-126.625-282.8-282.8 0-156.185 126.605-282.8 282.8-282.8 156.176 0 282.8 126.615 282.8 282.8z"></path><path fill="#454545" d="M505 797.9c-161.506 0-292.9-131.399-292.9-292.9 0-161.501 131.394-292.9 292.9-292.9S797.9 343.498 797.9 505c0 161.501-131.394 292.9-292.9 292.9zm0-565.6c-150.366 0-272.7 122.334-272.7 272.7 0 150.365 122.334 272.7 272.7 272.7 150.365 0 272.7-122.335 272.7-272.7 0-150.366-122.335-272.7-272.7-272.7z"></path><path fill="#FFB933" d="M722.15 505c0 119.938-97.232 217.15-217.15 217.15S287.85 624.938 287.85 505 385.082 287.85 505 287.85 722.15 385.062 722.15 505z"></path><g fill="#454545"><path d="M542.135 652.031H433.531c-5.578 0-10.1-4.516-10.1-10.1V387.628c0-5.583 4.522-10.1 10.1-10.1h108.604c36.75 0 61.44 35.567 61.44 68.787 0 21.511-11.29 41.87-27.781 54.78 29.85 11.718 49.784 38.98 49.784 72.367 0 44.789-35.872 78.57-83.443 78.57zm-98.504-20.199h98.504c36.647 0 63.244-24.55 63.244-58.371S578.782 515.1 542.135 515.1H453.08v-20.2h84.144c23.72 0 46.15-23.613 46.15-48.586 0-23.465-16.57-48.587-41.239-48.587h-98.504v234.105z"></path><path d="M483.3 419.91a10.097 10.097 0 0 1-10.099-10.1v-48.913c0-5.583 4.522-10.1 10.1-10.1 5.578 0 10.1 4.517 10.1 10.1v48.913c0 5.582-4.522 10.1-10.1 10.1zM522.429 419.91c-5.578 0-10.1-4.518-10.1-10.1v-48.913c0-5.583 4.522-10.1 10.1-10.1 5.577 0 10.1 4.517 10.1 10.1v48.913c0 5.582-4.523 10.1-10.1 10.1zM483.3 675.536a10.097 10.097 0 0 1-10.099-10.1v-48.922c0-5.582 4.522-10.1 10.1-10.1 5.578 0 10.1 4.518 10.1 10.1v48.922c0 5.583-4.522 10.1-10.1 10.1zM522.429 675.536c-5.578 0-10.1-4.517-10.1-10.1v-48.922c0-5.582 4.522-10.1 10.1-10.1 5.577 0 10.1 4.518 10.1 10.1v48.922c0 5.583-4.523 10.1-10.1 10.1z"></path></g></svg>